inDegrees=no
nColumns=32
nRows=11
DataType=double
version=3
OpenSimVersion=4.5
endheader
time	pelvis_tilt	pelvis_list	pelvis_rotation	pelvis_tz	pelvis_ty	pelvis_tx	hip_flexion_r	hip_adduction_r	hip_rotation_r	knee_angle_r	ankle_angle_r	subtalar_angle_r	mtp_angle_r	hip_flexion_l	hip_adduction_l	hip_rotation_l	knee_angle_l	ankle_angle_l	subtalar_angle_l	mtp_angle_l	lumbar_extension	lumbar_bending	lumbar_rotation	arm_flex_r	arm_add_r	arm_rot_r	elbow_flex_r	arm_flex_l	arm_add_l	arm_rot_l	elbow_flex_l
0.5800000000000001	-0.01383169743188758	0.0956513094330126	-0.01867117774469487	-0.03770719	0.92084098	0.65915404	0.5003854916303878	-0.0920083312383649	-0.2295685869322488	-0.2590272232287427	-0.0560546303286907	-0.08434472610494068	0	-0.2828280146934724	0.138263589872116	-0.3613730176281553	-0.1657793399569897	0.2507921442402063	0.04534099635396067	0	-0.1161583016508289	-0.07326989851043844	-0.07025761084341069	-0.1949921012497797	-0.1349076377996584	-0.1549923908090358	0.500967880949175	0.1046548693631242	-0.326920617874186	-0.1637401260568922	0.8733311623515795
0.5899999999999999	-0.01547376743953733	0.08597555957498033	-0.01902518740604058	-0.03589066999999999	0.92180567	0.67201484	0.4960924263803752	-0.08308717117485113	-0.2318188491870901	-0.2720548648167164	-0.07138525096889756	-0.08794726335557482	0	-0.2772127729996834	0.119614580135613	-0.3667387416415586	-0.1982334722823109	0.2276049733649648	0.03726666934538286	0	-0.1109601910302727	-0.0638294242801071	-0.06436612018094529	-0.1965064916767428	-0.1338240236045531	-0.1557143418908001	0.496569857008468	0.09963813300936941	-0.3200521711344022	-0.1661885449664904	0.8779841036723121
0.6000000000000001	-0.01976813029189296	0.07452347376343955	-0.0175912790887639	-0.03404453999999998	0.92287508	0.68545299	0.4934328458441647	-0.07224292251848838	-0.2301341022332947	-0.2877216234790196	-0.08998609590123079	-0.1009158793045094	0	-0.2684436216892404	0.09854160337779935	-0.366668001527113	-0.2312854102451691	0.2003894029817404	0.02673608393180566	0	-0.1016836759969335	-0.05157990440334641	-0.06344543823110019	-0.1962539753461691	-0.1350663110924779	-0.1578464343597071	0.4908956593142771	0.08714702710100863	-0.3143794074027248	-0.1715297764254345	0.8817295179388377
0.6099999999999999	-0.01909895061729468	0.06942063577947037	-0.0169027500332201	-0.03225946999999998	0.92422276	0.69850698	0.4886744690087863	-0.06895858479589866	-0.2323374933220079	-0.3082480529995651	-0.07841118260681312	-0.1130939893839906	0	-0.2616951921664041	0.08368845071573135	-0.3701374274026195	-0.268161329343496	0.1700638715941576	0.01798565145212321	0	-0.09955409435868834	-0.04747811781457438	-0.06065351932608773	-0.1960407750004576	-0.1333733434633727	-0.1581599440135185	0.4885165914115727	0.08031520644464381	-0.3097568890907167	-0.1722928022603482	0.8848355128570036
0.6200000000000001	-0.01939239329076931	0.06267859791567314	-0.01615282789421247	-0.03038079999999999	0.92557793	0.71152728	0.4838807152221346	-0.06303200463788776	-0.2338409642710388	-0.3268861107950119	-0.06053671142056875	-0.1234520469066131	0	-0.2505730603895863	0.06606823455706147	-0.3734658608687609	-0.3099723894313165	0.1356915929248303	0.005387588102008766	0	-0.09618627090572457	-0.04184626442603078	-0.05742524489519764	-0.1956102506196109	-0.1331013459422212	-0.1578763767047555	0.4870148451969087	0.07203074703011364	-0.304891183058454	-0.1726190376333346	0.8910205214738964
0.6299999999999999	-0.02321518135634235	0.05337883657669682	-0.01513164599850159	-0.02860256	0.92663334	0.7245826	0.4809549655172767	-0.053420191783954	-0.2344207444971271	-0.3446636179457337	-0.03815142631056954	-0.1260186605603539	0	-0.2311205352739185	0.04494944534984391	-0.3755638956807762	-0.358536915014997	0.09697190556123568	-0.01864809710383711	0	-0.08895079294341947	-0.03201816967305817	-0.05734894049656385	-0.1932340042161753	-0.1351758825138523	-0.1585567886012565	0.4857403918144684	0.05605537977307151	-0.3009268299781693	-0.1698407775005153	0.9009133332100658
0.6400000000000001	-0.02703515396770975	0.04436176362172286	-0.01284200586704877	-0.02637092999999999	0.9277139599999999	0.7370706299999999	0.4756320484963055	-0.04360125215557272	-0.2366379711598867	-0.3584980514194769	-0.01159619095239458	-0.1262637009476096	0	-0.2054484258707442	0.01952862565984498	-0.3847311035355899	-0.4164493795664631	0.05279179698234773	-0.03626466168464597	0	-0.08320658572960796	-0.02480471392618887	-0.0562615069974564	-0.1920938015597984	-0.1354308543481505	-0.1575363483437564	0.4852297512359016	0.04590693559548187	-0.2991942409315828	-0.1665906700478804	0.9068863764762257
0.6499999999999999	-0.03227238808012658	0.03283185431853557	-0.01163087548262791	-0.02422062999999999	0.92867928	0.74922592	0.469976868607776	-0.03127843194088677	-0.2420573268722756	-0.3680483932535566	0.01002622644952118	-0.1247598779656685	0	-0.1751238044978335	-0.009524486352007788	-0.3959309373707064	-0.4765981730602861	0.0003071231450124893	-0.0586598213439542	0	-0.07689521492580499	-0.01412491944219405	-0.05432395730455708	-0.1888177853925493	-0.1362686486919563	-0.1571289185086379	0.4859905777814248	0.03471333939257897	-0.2960982099235834	-0.16092242340284	0.914891755474434
0.6600000000000001	-0.03850686222222396	0.01871528124795691	-0.01087053234656173	-0.02192223999999998	0.92936343	0.76098984	0.4637285982632168	-0.01626459519216806	-0.2520315569963202	-0.3735257429408639	0.02660532019905481	-0.1180865871360587	0	-0.1421486053460599	-0.04188617958242512	-0.4043538300183194	-0.5365035124966104	-0.05254639635913446	-0.08845261907716666	0	-0.06963174572202226	-0.0006691634240048307	-0.05001557609222648	-0.1873506748878252	-0.1386113596410123	-0.1552090748319342	0.490937246321562	0.02472634270865486	-0.2930885620670493	-0.1529661324879758	0.9209587786121615
0.6699999999999999	-0.05239521265747354	0.003098285366420381	-0.005344344001413284	-0.02014143999999998	0.9292889600000001	0.77226376	0.4630720862073609	-0.001852299260118585	-0.27113197397817	-0.3727601361130523	0.04065060288547424	-0.1043316026206625	0	-0.09586963623988749	-0.07704780434991788	-0.4024935394191548	-0.6019985278693076	-0.1035288490777161	-0.1329551908489287	0	-0.05453088650773325	0.01449523589796642	-0.05162772485405473	-0.1850547481875005	-0.1400217266992273	-0.1530353904688205	0.4985470827476541	0.01353172985146268	-0.2925740826367926	-0.1408003917314364	0.9274419142489703
0.6799999999999997	-0.06158916975070163	-0.009143330287680239	-0.002876827145401337	-0.01829018999999998	0.92971031	0.78318948	0.457314878734083	0.01089728764153454	-0.284519597578349	-0.3701752293143555	0.05633982480791529	-0.09529058451422898	0	-0.05526055369012063	-0.1058667474558928	-0.397124865101184	-0.6637866785862671	-0.1493706617264171	-0.1651222716647012	0	-0.04577236896482386	0.02605841394755953	-0.04932706551893037	-0.1833976509142481	-0.1431906140333902	-0.1490230567166022	0.5077413163278032	0.005133029387144441	-0.289543340556386	-0.13143069636186	0.9320181418913593
